<?xml version="1.0" encoding="utf-8"?>
<svg xmlns="http://www.w3.org/2000/svg" width="24" height="24" viewBox="0 0 24 24" fill="none">
<g clip-path="url(#clip0_3012_37)">
<path d="M15.8864 12.4973C16.6153 13.0889 17.1341 13.5111 17.7426 14.0044C16.6763 14.7638 16.5712 15.8267 16.6001 16.9676C16.6221 17.8677 16.6102 18.7815 16.4763 19.6681C16.2 21.5023 14.5506 23.0585 12.7197 23.3263C10.7041 23.6196 8.82243 22.733 7.97144 21.0378C8.49356 20.6869 9.02586 20.3309 9.59714 19.9461C9.76327 20.1241 9.90906 20.2834 10.0565 20.4394C10.8143 21.2429 11.8569 21.4955 12.8367 21.1141C13.8114 20.7343 14.4421 19.8257 14.4777 18.7611C14.5183 17.5507 14.4285 16.3132 14.6607 15.1385C14.8353 14.2502 15.4287 13.4449 15.8864 12.4973Z" fill="white"/>
<path d="M7.94252 11.3799C7.21189 10.7848 6.69315 10.3627 6.09644 9.87621C7.14408 9.10489 7.26105 8.04538 7.23901 6.9079C7.22206 5.98061 7.21697 5.03638 7.37124 4.12605C7.69502 2.21385 9.30547 0.806829 11.355 0.510167C13.1146 0.255885 14.9997 1.2052 15.8575 2.836C15.3353 3.18691 14.8047 3.5446 14.2301 3.9311C14.0436 3.73107 13.8842 3.54629 13.7096 3.37677C12.9264 2.61732 12.0076 2.40033 10.9837 2.77327C9.98017 3.13944 9.39532 4.02943 9.35802 5.12284C9.31734 6.33322 9.39871 7.57072 9.16477 8.74381C8.98847 9.62871 8.39853 10.4322 7.94083 11.3799H7.94252Z" fill="white"/>
<path d="M14.6692 8.67296C15.2795 8.43902 15.905 8.2017 16.5966 7.93555C16.7611 9.14762 17.5137 9.84266 18.5224 10.3461C19.1259 10.6479 19.7073 10.9988 20.2786 11.3599C21.9111 12.3906 22.7757 14.2909 22.3858 16.176C21.984 18.117 20.7855 19.363 18.8428 19.8478C18.5512 19.9207 18.2427 19.9207 17.8477 19.9648C17.7884 19.263 17.7358 18.6306 17.7002 18.1899C18.4749 17.7169 19.2395 17.427 19.7565 16.8981C20.7872 15.842 20.4939 14.0485 19.2327 13.2178C18.458 12.7076 17.6256 12.2838 16.8289 11.804C15.6134 11.0717 14.8743 10.0071 14.6675 8.67296H14.6692Z" fill="white"/>
<path d="M5.97775 3.93457C6.03709 4.62622 6.09133 5.26192 6.13032 5.7298C5.38951 6.14852 4.63175 6.39093 4.13506 6.89441C2.99079 8.05563 3.3044 9.84916 4.71821 10.7425C5.47936 11.224 6.28459 11.6376 7.05082 12.1106C8.17983 12.8056 8.91216 13.7905 9.20544 15.1908C8.56126 15.4332 7.93911 15.6671 7.22543 15.935C7.0576 14.6076 6.15914 13.9736 5.12845 13.4261C4.40968 13.0429 3.68074 12.6446 3.05012 12.136C1.52443 10.9087 0.978574 8.83882 1.61767 7.01138C2.24998 5.20089 3.83331 4.05324 5.97945 3.93457H5.97775Z" fill="white"/>
<path d="M21.7636 10.8073C21.199 10.5276 20.6261 10.2428 20.0616 9.96308C20.1616 9.424 20.3396 8.93408 20.3277 8.44925C20.2853 6.56418 18.3138 5.41652 16.605 6.2743C15.8015 6.67776 15.0437 7.17446 14.2555 7.60843C13.0942 8.24752 11.8771 8.42891 10.4802 7.9712C10.5802 7.30499 10.682 6.63199 10.7904 5.90135C11.9347 6.29464 12.8942 6.05053 13.8164 5.43686C14.447 5.01645 15.1183 4.6452 15.8015 4.31633C17.673 3.41617 19.9242 3.88914 21.2787 5.42839C22.6095 6.94221 22.8265 9.1426 21.7636 10.8073Z" fill="white"/>
<path d="M2.0364 13.043C2.64837 13.3549 3.22135 13.6448 3.81129 13.9465C3.72483 14.2398 3.64685 14.4771 3.58582 14.7195C3.32646 15.7536 3.61634 16.6351 4.42156 17.303C5.25391 17.9947 6.21001 18.1303 7.18645 17.6234C8.01202 17.1945 8.7969 16.691 9.61399 16.2452C10.782 15.6078 12.0042 15.5044 13.3553 15.9011C13.2519 16.5775 13.1553 17.2064 13.0417 17.9506C11.1668 17.2369 9.93608 18.5592 8.54093 19.3102C7.15933 20.0527 5.76586 20.2307 4.30968 19.6661C1.70075 18.6541 0.627678 15.6112 2.0364 13.0413V13.043Z" fill="white"/>
</g>
<defs>
<clipPath id="clip0_3012_37">
<rect width="21.124" height="22.9091" fill="white" transform="translate(1.35498 0.469727)"/>
</clipPath>
</defs>
</svg>