<?xml version="1.0" encoding="utf-8"?>
<svg xmlns="http://www.w3.org/2000/svg" width="83" height="80" viewBox="0 0 83 80" fill="none">
<g clip-path="url(#clip0_2972_7927)">
<path d="M54.7871 41.5918C57.3011 43.6322 59.0901 45.0879 61.1889 46.7892C57.5115 49.4084 57.1491 53.0741 57.2485 57.0087C57.3245 60.1131 57.2835 63.2643 56.8217 66.3219C55.8687 72.6477 50.1802 78.0146 43.8661 78.9384C36.9148 79.9498 30.4254 76.8921 27.4905 71.0458C29.2912 69.8356 31.1269 68.6078 33.0971 67.2807C33.6701 67.8946 34.1729 68.4441 34.6815 68.982C37.2948 71.7532 40.8903 72.6243 44.2695 71.3089C47.6312 69.9993 49.806 66.8656 49.9288 63.1941C50.0691 59.0198 49.7593 54.752 50.5602 50.7004C51.1624 47.6369 53.2086 44.8599 54.7871 41.5918Z" fill="white"/>
<path d="M27.3909 37.7391C24.8711 35.687 23.0821 34.2313 21.0242 32.5534C24.6372 29.8933 25.0406 26.2393 24.9646 22.3164C24.9062 19.1184 24.8886 15.862 25.4206 12.7225C26.5373 6.12783 32.0913 1.27535 39.1596 0.252237C45.2281 -0.624717 51.7293 2.64925 54.6875 8.27344C52.8868 9.48364 51.0569 10.7172 49.075 12.0502C48.4319 11.3603 47.8824 10.7231 47.2802 10.1384C44.5792 7.51926 41.4104 6.77093 37.8792 8.05713C34.4182 9.31994 32.4012 12.3893 32.2726 16.1602C32.1323 20.3345 32.4129 24.6023 31.6061 28.648C30.9981 31.6998 28.9635 34.471 27.385 37.7391H27.3909Z" fill="white"/>
<path d="M50.5898 28.4025C52.6945 27.5957 54.8518 26.7773 57.2371 25.8594C57.8042 30.0395 60.4 32.4365 63.8786 34.1729C65.9599 35.2136 67.9652 36.4237 69.9354 37.669C75.5655 41.2236 78.5471 47.7774 77.2025 54.2785C75.8169 60.9726 71.6835 65.2697 64.9836 66.9418C63.978 67.1931 62.914 67.1931 61.5518 67.3452C61.3471 64.9248 61.1659 62.7441 61.0431 61.224C63.7149 59.5929 66.3516 58.5932 68.1348 56.7691C71.6894 53.1268 70.6779 46.9414 66.3282 44.0766C63.6564 42.3169 60.7859 40.8553 58.0381 39.2008C53.8463 36.6751 51.2972 33.0036 50.584 28.4025H50.5898Z" fill="white"/>
<path d="M20.6154 12.0618C20.82 14.4471 21.0071 16.6395 21.1416 18.2531C18.5867 19.6971 15.9734 20.5331 14.2604 22.2695C10.3141 26.2743 11.3957 32.4597 16.2715 35.5408C18.8966 37.2011 21.6736 38.6276 24.3161 40.2588C28.2098 42.6558 30.7354 46.0525 31.7469 50.8816C29.5252 51.7176 27.3796 52.5244 24.9183 53.4482C24.3395 48.8705 21.241 46.6839 17.6864 44.7955C15.2075 43.4743 12.6936 42.1004 10.5187 40.3465C5.257 36.1137 3.37448 28.9753 5.57855 22.6729C7.75925 16.429 13.2197 12.471 20.6212 12.0618H20.6154Z" fill="white"/>
<path d="M75.0564 35.7631C73.1096 34.7984 71.1335 33.8162 69.1867 32.8516C69.5316 30.9924 70.1455 29.3028 70.1046 27.6308C69.9584 21.1296 63.1591 17.1716 57.266 20.1299C54.4948 21.5213 51.8815 23.2343 49.1629 24.731C45.1582 26.9351 40.9605 27.5606 36.1431 25.9821C36.488 23.6845 36.8388 21.3635 37.2129 18.8437C41.1592 20.2 44.4683 19.3582 47.6487 17.2418C49.8236 15.7919 52.1387 14.5115 54.4948 13.3773C60.9492 10.2729 68.7131 11.9041 73.3844 17.2126C77.9738 22.4334 78.7221 30.0219 75.0564 35.7631Z" fill="white"/>
<path d="M7.02245 43.4743C9.13299 44.5501 11.1091 45.5498 13.1436 46.5905C12.8454 47.6019 12.5765 48.4204 12.366 49.2564C11.4715 52.8227 12.4713 55.8628 15.2483 58.1663C18.1188 60.5516 21.4162 61.0193 24.7837 59.2712C27.6309 57.7921 30.3377 56.0557 33.1557 54.5181C37.1838 52.3199 41.3991 51.9633 46.0586 53.3313C45.702 55.664 45.3687 57.833 44.977 60.3996C38.511 57.9382 34.2665 62.4984 29.4549 65.0883C24.6902 67.6491 19.8844 68.2629 14.8624 66.3161C5.86488 62.8258 2.16413 52.3316 7.02245 43.4685V43.4743Z" fill="white"/>
</g>
<defs>
<clipPath id="clip0_2972_7927">
<rect width="72.8515" height="79.0077" fill="white" transform="translate(4.67261 0.112061)"/>
</clipPath>
</defs>
</svg>