<?xml version="1.0" encoding="utf-8"?>
<!-- Generator: Adobe Illustrator 26.3.1, SVG Export Plug-In . SVG Version: 6.00 Build 0)  -->
<svg version="1.1" id="Layer_1" xmlns="http://www.w3.org/2000/svg" xmlns:xlink="http://www.w3.org/1999/xlink" x="0px" y="0px"
	 viewBox="0 0 120.4 69.5" style="enable-background:new 0 0 120.4 69.5;" xml:space="preserve">
<style type="text/css">
	.st0{fill:#5E65FF;}
</style>
<path class="st0" d="M46.8,69.5c0,0-0.5-7.9-0.9-12.5s-2.8-8.6-7.7-14.5s-26-32.9-26-32.9V0H36c0,0,14.4,16.6,19.2,22
	s15.7,18.5,19.2,23.1s5.9,11,6,16.3s0,8.1,0,8.1H46.8z"/>
<path class="st0" d="M86,69.5c0,0-0.6-11.3-1.7-15.4S65.5,27.5,62.1,23.5H52L51.3,0h23.9l45.2,52.2v17.3H86z"/>
<g>
	<path class="st0" d="M23.8,69.5H12.2c-2.3,0-4.4-1.2-5.6-3.2l-5.8-10c-1.1-2-1.1-4.5,0-6.4l5.8-10c1.1-2,3.3-3.2,5.6-3.2h11.6
		c2.3,0,4.4,1.2,5.6,3.2l5.8,10c1.1,2,1.1,4.5,0,6.4l-5.8,10C28.2,68.3,26.1,69.5,23.8,69.5z M23.8,44.5L23.8,44.5L23.8,44.5z"/>
</g>
</svg>
