<svg width="175" height="27" viewBox="0 0 175 27" fill="none" xmlns="http://www.w3.org/2000/svg">
<g clip-path="url(#clip0_557_8834)">
<path d="M15.2204 25.1781C15.2204 25.1781 15.0455 22.6273 14.9055 21.135C14.7656 19.6427 13.9783 18.3413 12.4038 16.4499C10.8293 14.5585 3.97131 5.83039 3.97131 5.83039V2.7417H11.7215C11.7215 2.7417 16.4101 8.12088 17.9671 9.83874C19.5241 11.5566 23.0756 15.8252 24.2127 17.2828C25.3499 18.7404 26.1372 20.8227 26.1722 22.5579C26.2071 24.2931 26.1722 25.1781 26.1722 25.1781H15.2204Z" fill="#5865F2"/>
<path d="M28.0091 25.1781C28.0091 25.1781 27.7992 21.5341 27.4668 20.2153C27.1169 18.8966 21.3261 11.6087 20.2414 10.3246H16.9349L16.69 2.7417H24.4752L39.1708 19.608V25.1781H28.0091Z" fill="#5865F2"/>
<path d="M7.73264 25.1781H3.97127C3.21899 25.1781 2.5367 24.779 2.15181 24.137L0.279876 20.9095C-0.0875139 20.2675 -0.0875139 19.4693 0.279876 18.8272L2.16931 15.5997C2.5367 14.9577 3.23649 14.5586 3.98876 14.5586H7.75013C8.50241 14.5586 9.1847 14.9577 9.56959 15.5997L11.459 18.8272C11.8264 19.4693 11.8264 20.2675 11.459 20.9095L9.56959 24.137C9.1847 24.779 8.48491 25.1781 7.73264 25.1781Z" fill="#5865F2"/>
<path d="M63.9083 25.1784H61.4765V14.368C61.4765 13.9689 61.3716 13.6392 61.1441 13.3789C60.9167 13.1186 60.5843 12.9971 60.112 12.9971H55.3184C55.091 12.9971 54.8985 13.0666 54.7236 13.2054C54.5661 13.3442 54.4786 13.5351 54.4786 13.7953V25.1957H52.0469V10.8455H54.4786V12.4245L56.3506 10.8455H60.6718C61.3191 10.8455 61.8964 11.0016 62.4038 11.3313C62.9111 11.661 63.296 12.0775 63.5584 12.5807L65.5878 10.8281H69.4192C69.944 10.8281 70.4514 10.9322 70.9237 11.1405C71.3961 11.3487 71.8159 11.6263 72.1658 11.9734C72.5157 12.3204 72.8131 12.7369 73.0231 13.2054C73.233 13.6739 73.338 14.1771 73.338 14.7324V25.1784H70.9062V15.0274C70.9062 14.4374 70.7138 13.9689 70.3114 13.5698C69.909 13.188 69.4192 12.9798 68.8593 12.9798H64.7306C64.5031 12.9798 64.3107 13.0492 64.1357 13.188C63.9783 13.3268 63.8908 13.5177 63.8908 13.778V25.1784H63.9083Z" fill="url(#paint0_linear_557_8834)"/>
<path d="M86.4241 10.8455C86.9489 10.8455 87.4562 10.9496 87.9286 11.1578C88.401 11.366 88.8208 11.6437 89.1882 11.9907C89.5556 12.3378 89.8355 12.7542 90.0455 13.2227C90.2554 13.6912 90.3604 14.1944 90.3604 14.7497V21.3262C90.3604 21.8468 90.2554 22.35 90.0455 22.8185C89.8355 23.287 89.5556 23.7034 89.2057 24.0505C88.8558 24.3975 88.4359 24.6752 87.9636 24.8834C87.4912 25.0916 86.9839 25.1957 86.4241 25.1957H80.6683C80.1434 25.1957 79.6361 25.0916 79.1637 24.8834C78.6914 24.6752 78.2715 24.4149 77.9041 24.0678C77.5367 23.7208 77.2568 23.3217 77.0469 22.8358C76.8369 22.3673 76.732 21.8641 76.732 21.3262V14.7324C76.732 14.2118 76.8369 13.7086 77.0469 13.2401C77.2568 12.7716 77.5367 12.3551 77.8866 11.9907C78.2365 11.6263 78.6564 11.3487 79.1287 11.1405C79.6011 10.9322 80.1085 10.8281 80.6683 10.8281H86.4241V10.8455ZM87.9286 15.0274C87.9286 14.4374 87.7362 13.9689 87.3338 13.5698C86.9314 13.188 86.4415 12.9798 85.8817 12.9798H81.2456C80.6683 12.9798 80.1959 13.1707 79.7935 13.5698C79.3912 13.9515 79.1987 14.4374 79.1987 15.0274V21.0312C79.1987 21.6038 79.3912 22.0723 79.7935 22.4541C80.1959 22.8358 80.6858 23.0441 81.2456 23.0441H85.8817C86.4415 23.0441 86.9314 22.8532 87.3338 22.4541C87.7362 22.0723 87.9286 21.5865 87.9286 21.0312V15.0274Z" fill="url(#paint1_linear_557_8834)"/>
<path d="M97.1484 25.1784C96.606 25.1784 96.0812 25.0743 95.6088 24.866C95.1365 24.6578 94.7166 24.3975 94.3667 24.0505C94.0168 23.7034 93.7369 23.3043 93.5269 22.8185C93.317 22.35 93.212 21.8468 93.212 21.3088V14.7324C93.212 14.1944 93.317 13.6739 93.5269 13.2054C93.7369 12.7369 94.0168 12.3204 94.3667 11.9734C94.7166 11.6263 95.1365 11.3487 95.6088 11.1405C96.0812 10.9322 96.5885 10.8281 97.1484 10.8281H102.747C103.272 10.8281 103.779 10.9322 104.234 11.1231C104.689 11.314 105.091 11.5916 105.441 11.9213C105.773 12.2684 106.053 12.6675 106.246 13.1186C106.438 13.5698 106.543 14.0556 106.543 14.5935V18.7928H95.6438V21.0486C95.6438 21.6212 95.8362 22.0897 96.2386 22.4714C96.6235 22.8532 97.1134 23.0614 97.7082 23.0614H102.134C102.694 23.0614 103.184 22.8705 103.569 22.4714C103.954 22.0897 104.164 21.6038 104.164 21.0486V20.7015H106.561V21.413C106.561 21.9509 106.456 22.4541 106.246 22.9226C106.036 23.3738 105.756 23.7729 105.388 24.1199C105.021 24.4496 104.601 24.7099 104.129 24.9007C103.656 25.0916 103.149 25.1784 102.624 25.1784H97.1484ZM97.6732 12.9624C97.0784 12.9624 96.606 13.1533 96.2036 13.5524C95.8188 13.9342 95.6088 14.42 95.6088 15.01V16.8667H104.111V14.8712C104.111 14.3159 103.936 13.8474 103.586 13.5004C103.237 13.1533 102.782 12.9798 102.222 12.9798H97.6732V12.9624Z" fill="url(#paint2_linear_557_8834)"/>
<path d="M121.659 25.1781H119.227V14.3677C119.227 13.9686 119.122 13.6389 118.894 13.3786C118.667 13.1184 118.335 12.9969 117.862 12.9969H113.069C112.841 12.9969 112.649 13.0663 112.474 13.2051C112.316 13.3439 112.229 13.5348 112.229 13.7951V25.1955H109.797V10.8452H112.229V12.4243L114.101 10.8452H118.439C119.087 10.8452 119.664 11.0014 120.171 11.3311C120.679 11.6608 121.064 12.0772 121.326 12.5804L123.338 10.8452H127.187C127.712 10.8452 128.219 10.9493 128.691 11.1576C129.164 11.3658 129.584 11.6434 129.934 11.9905C130.283 12.3375 130.581 12.754 130.791 13.2225C131.001 13.691 131.106 14.1942 131.106 14.7495V25.1955H128.674V15.0271C128.674 14.4371 128.481 13.9686 128.079 13.5695C127.677 13.1878 127.187 12.9795 126.627 12.9795H122.498C122.271 12.9795 122.078 13.0489 121.903 13.1878C121.746 13.3266 121.659 13.5175 121.659 13.7777V25.1781Z" fill="url(#paint3_linear_557_8834)"/>
<path d="M138.436 25.1784C137.911 25.1784 137.404 25.0743 136.914 24.866C136.442 24.6578 136.022 24.3802 135.654 24.0331C135.304 23.6861 135.024 23.2696 134.815 22.8011C134.605 22.3326 134.5 21.8294 134.5 21.3088V14.7324C134.5 14.1944 134.605 13.6739 134.815 13.2054C135.024 12.7369 135.304 12.3204 135.672 11.9734C136.022 11.6263 136.442 11.3487 136.914 11.1405C137.386 10.9322 137.894 10.8281 138.418 10.8281H147.673V25.161H145.241V23.5993L143.317 25.1784H138.436ZM144.419 23.0441C144.647 23.0441 144.839 22.9747 145.014 22.8358C145.171 22.697 145.259 22.5061 145.259 22.2459V12.9971H138.996C138.418 12.9971 137.946 13.188 137.544 13.5871C137.141 13.9689 136.949 14.4547 136.949 15.0447V21.0486C136.949 21.6212 137.141 22.0897 137.544 22.4714C137.946 22.8532 138.436 23.0614 138.996 23.0614H144.419V23.0441Z" fill="url(#paint4_linear_557_8834)"/>
<path d="M159.325 25.1782H156.368C155.843 25.1782 155.336 25.0915 154.881 24.9006C154.426 24.7097 154.024 24.4668 153.691 24.1371C153.359 23.8074 153.097 23.4257 152.904 22.9572C152.712 22.506 152.607 22.0028 152.607 21.4475V12.997H150.105V10.8453H152.607V7.70459H155.038V10.8453H159.36V12.9797H155.038V21.1525C155.038 21.7252 155.213 22.1763 155.563 22.506C155.913 22.853 156.368 23.0266 156.928 23.0266H159.325V25.1782Z" fill="url(#paint5_linear_557_8834)"/>
<path d="M165.623 25.1784C165.08 25.1784 164.556 25.0743 164.083 24.866C163.611 24.6578 163.191 24.3975 162.841 24.0505C162.491 23.7034 162.211 23.3043 162.001 22.8185C161.791 22.35 161.686 21.8468 161.686 21.3088V14.7324C161.686 14.1944 161.791 13.6739 162.001 13.2054C162.211 12.7369 162.491 12.3204 162.841 11.9734C163.191 11.6263 163.611 11.3487 164.083 11.1405C164.556 10.9322 165.063 10.8281 165.623 10.8281H171.221C171.746 10.8281 172.253 10.9322 172.708 11.1231C173.163 11.314 173.565 11.5916 173.915 11.9213C174.248 12.2684 174.528 12.6675 174.72 13.1186C174.913 13.5698 175.017 14.0556 175.017 14.5935V18.7928H164.101V21.0486C164.101 21.6212 164.293 22.0897 164.696 22.4714C165.08 22.8532 165.57 23.0614 166.165 23.0614H170.574C171.134 23.0614 171.624 22.8705 172.008 22.4714C172.393 22.0897 172.603 21.6038 172.603 21.0486V20.7015H175V21.413C175 21.9509 174.895 22.4541 174.685 22.9226C174.475 23.3738 174.195 23.7729 173.828 24.1199C173.46 24.4496 173.041 24.7099 172.568 24.9007C172.096 25.0916 171.589 25.1784 171.064 25.1784H165.623ZM166.148 12.9624C165.553 12.9624 165.08 13.1533 164.678 13.5524C164.293 13.9342 164.083 14.42 164.083 15.01V16.8667H172.586V14.8712C172.586 14.3159 172.411 13.8474 172.061 13.5004C171.711 13.1533 171.256 12.9798 170.696 12.9798H166.148V12.9624Z" fill="url(#paint6_linear_557_8834)"/>
</g>
<defs>
<linearGradient id="paint0_linear_557_8834" x1="-11.0081" y1="18.015" x2="175.095" y2="18.015" gradientUnits="userSpaceOnUse">
<stop stop-color="#BFC5F2"/>
<stop offset="0.3362" stop-color="#DBE1F6"/>
<stop offset="0.7027" stop-color="#F8E0F9"/>
<stop offset="1" stop-color="#DFFBFA"/>
</linearGradient>
<linearGradient id="paint1_linear_557_8834" x1="-11.0081" y1="18.015" x2="175.095" y2="18.015" gradientUnits="userSpaceOnUse">
<stop stop-color="#BFC5F2"/>
<stop offset="0.3362" stop-color="#DBE1F6"/>
<stop offset="0.7027" stop-color="#F8E0F9"/>
<stop offset="1" stop-color="#DFFBFA"/>
</linearGradient>
<linearGradient id="paint2_linear_557_8834" x1="-11.0081" y1="18.015" x2="175.095" y2="18.015" gradientUnits="userSpaceOnUse">
<stop stop-color="#BFC5F2"/>
<stop offset="0.3362" stop-color="#DBE1F6"/>
<stop offset="0.7027" stop-color="#F8E0F9"/>
<stop offset="1" stop-color="#DFFBFA"/>
</linearGradient>
<linearGradient id="paint3_linear_557_8834" x1="-11.0082" y1="18.0147" x2="175.095" y2="18.0147" gradientUnits="userSpaceOnUse">
<stop stop-color="#BFC5F2"/>
<stop offset="0.3362" stop-color="#DBE1F6"/>
<stop offset="0.7027" stop-color="#F8E0F9"/>
<stop offset="1" stop-color="#DFFBFA"/>
</linearGradient>
<linearGradient id="paint4_linear_557_8834" x1="-11.0081" y1="18.015" x2="175.095" y2="18.015" gradientUnits="userSpaceOnUse">
<stop stop-color="#BFC5F2"/>
<stop offset="0.3362" stop-color="#DBE1F6"/>
<stop offset="0.7027" stop-color="#F8E0F9"/>
<stop offset="1" stop-color="#DFFBFA"/>
</linearGradient>
<linearGradient id="paint5_linear_557_8834" x1="-11.0082" y1="16.4419" x2="175.095" y2="16.4419" gradientUnits="userSpaceOnUse">
<stop stop-color="#BFC5F2"/>
<stop offset="0.3362" stop-color="#DBE1F6"/>
<stop offset="0.7027" stop-color="#F8E0F9"/>
<stop offset="1" stop-color="#DFFBFA"/>
</linearGradient>
<linearGradient id="paint6_linear_557_8834" x1="-11.0081" y1="18.015" x2="175.095" y2="18.015" gradientUnits="userSpaceOnUse">
<stop stop-color="#BFC5F2"/>
<stop offset="0.3362" stop-color="#DBE1F6"/>
<stop offset="0.7027" stop-color="#F8E0F9"/>
<stop offset="1" stop-color="#DFFBFA"/>
</linearGradient>
<clipPath id="clip0_557_8834">
<rect width="175" height="27" fill="white"/>
</clipPath>
</defs>
</svg>
