<?xml version="1.0" encoding="utf-8"?>
<svg xmlns="http://www.w3.org/2000/svg" width="131" height="30" viewBox="0 0 131 30" fill="none">
<g clip-path="url(#clip0_307_1754)">
<path d="M19.8115 15.4612C20.7206 16.199 21.3675 16.7254 22.1264 17.3406C20.7967 18.2877 20.6656 19.6132 20.7015 21.036C20.729 22.1586 20.7142 23.2981 20.5472 24.4037C20.2026 26.6912 18.1456 28.6319 15.8624 28.9659C13.3488 29.3316 11.0022 28.226 9.94092 26.1119C10.5921 25.6743 11.2559 25.2303 11.9683 24.7504C12.1755 24.9724 12.3573 25.1711 12.5412 25.3656C13.4862 26.3677 14.7864 26.6827 16.0083 26.207C17.2239 25.7335 18.0103 24.6003 18.0547 23.2727C18.1055 21.7633 17.9934 20.22 18.283 18.7549C18.5008 17.6472 19.2407 16.643 19.8115 15.4612Z" fill="white"/>
<path d="M9.90476 14.068C8.9936 13.326 8.34669 12.7996 7.60254 12.1929C8.90903 11.231 9.05491 9.90966 9.02742 8.49112C9.00628 7.33472 8.99994 6.15719 9.19232 5.02193C9.59611 2.63726 11.6045 0.882582 14.1604 0.51262C16.3548 0.195509 18.7056 1.37939 19.7754 3.41312C19.1242 3.85074 18.4625 4.29681 17.7458 4.77881C17.5133 4.52935 17.3146 4.29892 17.0968 4.08751C16.1201 3.14041 14.9743 2.86981 13.6974 3.3349C12.4459 3.79154 11.7165 4.90143 11.67 6.265C11.6193 7.77445 11.7207 9.31772 11.429 10.7807C11.2091 11.8842 10.4734 12.8863 9.90265 14.068H9.90476Z" fill="white"/>
<path d="M18.2936 10.6918C19.0547 10.4001 19.8348 10.1041 20.6973 9.77222C20.9024 11.2838 21.841 12.1505 23.0989 12.7784C23.8515 13.1547 24.5766 13.5923 25.2891 14.0426C27.3249 15.328 28.4031 17.6979 27.9169 20.0487C27.4158 22.4693 25.9212 24.0232 23.4985 24.6278C23.1348 24.7187 22.7501 24.7187 22.2575 24.7737C22.1835 23.8984 22.118 23.1099 22.0736 22.5602C23.0397 21.9704 23.9932 21.6089 24.6379 20.9493C25.9233 19.6322 25.5576 17.3956 23.9847 16.3597C23.0186 15.7233 21.9806 15.1948 20.9869 14.5965C19.4712 13.6832 18.5494 12.3556 18.2915 10.6918H18.2936Z" fill="white"/>
<path d="M7.45444 4.78302C7.52843 5.64556 7.59608 6.43834 7.6447 7.02182C6.72085 7.544 5.77586 7.84631 5.15644 8.47419C3.72944 9.92232 4.12055 12.159 5.88368 13.2731C6.8329 13.8735 7.83708 14.3894 8.79264 14.9792C10.2006 15.8459 11.1139 17.0742 11.4796 18.8204C10.6763 19.1228 9.90041 19.4145 9.01039 19.7485C8.8011 18.0932 7.68064 17.3025 6.39529 16.6197C5.49892 16.1419 4.58987 15.6451 3.80344 15.0109C1.90077 13.4803 1.22004 10.899 2.01705 8.62006C2.8056 6.36223 4.78014 4.931 7.45655 4.78302H7.45444Z" fill="white"/>
<path d="M27.1406 13.3535C26.4366 13.0046 25.722 12.6495 25.0181 12.3006C25.1428 11.6284 25.3648 11.0174 25.35 10.4128C25.2971 8.06194 22.8385 6.63071 20.7075 7.70043C19.7054 8.20358 18.7604 8.823 17.7774 9.3642C16.3292 10.1612 14.8113 10.3874 13.0693 9.81661C13.1941 8.98579 13.3209 8.1465 13.4562 7.23534C14.8832 7.7258 16.0798 7.42137 17.2298 6.65608C18.0163 6.13179 18.8534 5.66881 19.7054 5.25868C22.0393 4.13611 24.8468 4.72593 26.536 6.64551C28.1955 8.53337 28.4661 11.2774 27.1406 13.3535Z" fill="white"/>
<path d="M2.53953 16.1419C3.30271 16.5309 4.01727 16.8924 4.75296 17.2687C4.64514 17.6344 4.5479 17.9304 4.47179 18.2327C4.14834 19.5223 4.50984 20.6216 5.51403 21.4545C6.55204 22.3171 7.74437 22.4862 8.96208 21.8541C9.99163 21.3192 10.9704 20.6914 11.9894 20.1354C13.446 19.3405 14.9703 19.2115 16.6552 19.7062C16.5262 20.5497 16.4057 21.334 16.2641 22.2621C13.9259 21.3721 12.3911 23.0211 10.6512 23.9576C8.92825 24.8836 7.19048 25.1055 5.3745 24.4016C2.12094 23.1395 0.782739 19.3447 2.53953 16.1398V16.1419Z" fill="white"/>
</g>
<g clip-path="url(#clip1_307_1754)">
<path d="M77.1757 25.8414C71.2388 25.8414 66.4087 21.016 66.4087 15.0847C66.4087 9.15349 71.2388 4.32809 77.1757 4.32809C83.1127 4.32809 87.9428 9.15349 87.9428 15.0847C87.9428 21.016 83.1127 25.8414 77.1757 25.8414ZM77.1757 7.34579C72.904 7.34579 69.4293 10.8171 69.4293 15.0847C69.4293 19.3523 72.904 22.8237 77.1757 22.8237C81.4475 22.8237 84.9221 19.3523 84.9221 15.0847C84.9221 10.8171 81.4475 7.34579 77.1757 7.34579Z" fill="#CECECE"/>
<path d="M57.8975 25.7936C55.6028 25.7936 53.6989 24.3451 53.047 22.1043L49.0579 8.39125C48.7782 7.43045 48.063 6.87851 47.0954 6.87851C46.9805 6.87851 46.8655 6.88629 46.7515 6.90284C45.8813 7.02647 44.9518 7.63585 44.9518 8.97532V25.2427H41.9302V8.97532C41.9302 6.36452 43.7377 4.28328 46.3247 3.91532C46.5858 3.87833 46.8489 3.85983 47.1071 3.85983C49.4018 3.85983 51.3058 5.30833 51.9576 7.54921L55.9468 21.2622C56.2265 22.223 56.9417 22.775 57.9092 22.775C58.0242 22.775 58.1402 22.7672 58.2542 22.7506C59.1243 22.627 60.0539 22.0176 60.0539 20.6791V4.45948H63.0745V20.6782C63.0745 23.2889 61.267 25.3702 58.68 25.7382C58.4188 25.7751 58.1558 25.7936 57.8975 25.7936Z" fill="#CECECE"/>
<path d="M99.8412 25.8414C97.6264 25.8414 95.7293 24.4883 95.0082 22.3934L88.6084 3.84137H91.8025L97.8632 21.4112C98.1682 22.2951 98.9087 22.8237 99.8441 22.8237H99.8578C100.81 22.8149 101.547 22.2727 101.838 21.3752L107.517 3.84137H110.694L104.711 22.3048C104.022 24.4308 102.132 25.819 99.8948 25.8414H99.8412Z" fill="#CECECE"/>
<path d="M127.736 25.8414L121.676 8.27155C121.371 7.38765 120.63 6.85907 119.695 6.85907H119.681C118.729 6.86783 117.991 7.41004 117.701 8.30756L112.021 25.8414H108.845L114.827 7.37792C115.517 5.25093 117.409 3.86279 119.647 3.84137H119.698C121.912 3.84137 123.809 5.19447 124.53 7.28933L130.93 25.8414H127.736Z" fill="#CECECE"/>
</g>
<defs>
<clipPath id="clip0_307_1754">
<rect width="26.3434" height="28.5695" fill="white" transform="translate(1.68945 0.461914)"/>
</clipPath>
<clipPath id="clip1_307_1754">
<rect width="89" height="22" fill="white" transform="translate(41.9302 3.84137)"/>
</clipPath>
</defs>
</svg>