<?xml version="1.0" encoding="utf-8"?>
<svg xmlns="http://www.w3.org/2000/svg" fill="none" height="41" viewBox="0 0 41 41" width="41">
  <rect fill="#fff" height="40" rx="20" width="40" x=".397949" y=".302246"/>
  <path d="m27.3811 20.0275c-.0236-.1021-.0723-.1967-.1417-.2755-.0694-.0787-.1574-.1391-.256-.1757l-4.5812-.7098 1.1612-6.8023c.0267-.1344.0095-.2738-.0492-.3977-.0587-.124-.1557-.2259-.2769-.291-.1223-.0648-.2627-.0875-.3994-.0646-.1366.0229-.2619.0902-.3561.1913l-8.9079 9.4989c-.073.0754-.1258.1678-.1536.2688-.0278.1009-.0297.2072-.0055.3091.0249.1015.0741.1955.1433.2741.0692.0785.1565.1393.2544.1771l4.5812.7098-1.1612 6.8023c-.0267.1344-.0095.2738.0492.3977.0587.124.1557.2259.2769.291.0913.0459.192.0702.2942.0712.0865.0004.1721-.017.2514-.051.0794-.0341.1509-.0841.2099-.1469l8.9079-9.4989c.073-.0754.1258-.1678.1536-.2688.0278-.1009.0297-.2072.0055-.3091z" fill="#000"/>
  <rect height="39" rx="19.5" stroke="#fff" stroke-opacity=".2" width="39" x=".897949" y=".802246"/>
</svg>