<?xml version="1.0" encoding="utf-8"?>
<svg xmlns="http://www.w3.org/2000/svg" fill="none" height="40" viewBox="0 0 40 40" width="40">
  <rect fill="#fff" height="40" rx="20" width="40"/>
  <g fill="#000">
    <path d="m19.4498 25.3862 4.243-4.243c.3905-.3905 1.0236-.3905 1.414 0 .3905.3905.3905 1.0235 0 1.414l-4.9498 4.9499c-.3906.3905-1.0237.3905-1.4143 0l-4.9499-4.9499c-.3904-.3905-.3904-1.0235 0-1.414.3905-.3905 1.0236-.3905 1.414 0z"/>
    <path clip-rule="evenodd" d="m19.5 12.8503c.5523 0 1 .4478 1 1v12.5c0 .5523-.4477 1-1 1s-1-.4477-1-1v-12.5c0-.5522.4477-1 1-1z" fill-rule="evenodd"/>
  </g>
</svg>