<?xml version="1.0" encoding="utf-8"?>
<svg xmlns="http://www.w3.org/2000/svg" xmlns:xlink="http://www.w3.org/1999/xlink" fill="none" height="24" viewBox="0 0 91 24" width="91">
  <clipPath id="a">
    <path d="m.977295.865723h90v22.2687h-90z"/>
  </clipPath>
  <g clip-path="url(#a)" fill="#fff">
    <path d="m36.6192 23.1344c-6.0037 0-10.888-4.8843-10.888-10.888 0-6.00367 4.8843-10.888 10.888-10.888s10.888 4.88433 10.888 10.888c0 6.0037-4.8843 10.888-10.888 10.888zm0-18.72145c-4.3197 0-7.8334 3.51372-7.8334 7.83345 0 4.3197 3.5137 7.8335 7.8334 7.8335s7.8335-3.5138 7.8335-7.8335c0-4.31973-3.5138-7.83345-7.8335-7.83345z"/>
    <path d="m17.1241 23.086c-2.3205 0-4.2459-1.4662-4.9051-3.7345l-4.03394-13.88046c-.28279-.97254-1.00603-1.53122-1.98448-1.53122-.11627 0-.23254.00788-.34782.02463-.87991.12514-1.81992.74196-1.81992 2.09779v16.46606h-3.055545v-16.46606c0-2.64268 1.827805-4.74934 4.443885-5.121798.26407-.037443.53011-.056165.79123-.056165 2.32047 0 4.24579 1.466183 4.90499 3.734443l4.034 13.88048c.2828.9725 1.006 1.5312 1.9845 1.5312.1163 0 .2335-.0079.3488-.0246.8799-.1252 1.8199-.742 1.8199-2.0968v-16.41775h3.0546v16.41675c0 2.6427-1.8278 4.7493-4.4439 5.1218-.2641.0374-.5301.0562-.7912.0562z"/>
    <path d="m59.5392 23.1344c-2.2397 0-4.1582-1.3696-4.8873-3.4901l-6.4717-18.778577h3.2299l6.1288 17.784377c.3085.8947 1.0573 1.4298 2.0032 1.4298h.0138c.9627-.0089 1.7086-.5578 2.0022-1.4662l5.7436-17.747977h3.2122l-6.05 18.688977c-.6966 2.1519-2.6082 3.557-4.8705 3.5797z"/>
    <path d="m87.7473 23.1344-6.1288-17.7844c-.3084-.89468-1.0573-1.42972-2.0032-1.42972h-.0138c-.9627.00886-1.7086.5577-2.0022 1.46618l-5.7435 17.74794h-3.2122l6.0499-18.68894c.6977-2.15296 2.6102-3.55806 4.8735-3.579737h.0513c2.2397 0 4.1581 1.369627 4.8873 3.490077l6.4717 18.7786z"/>
  </g>
</svg>